<svg width="20" height="35" viewBox="0 0 20 35" fill="none" xmlns="http://www.w3.org/2000/svg">
<g clip-path="url(#clip0_7_8)">
<path d="M1.70968 0.852941C1.70968 1.32401 1.32695 1.70588 0.854839 1.70588C0.382724 1.70588 0 1.32401 0 0.852941C0 0.381875 0.382724 0 0.854839 0C1.32695 0 1.70968 0.381875 1.70968 0.852941Z" fill="white"/>
<path d="M6.83871 0.852941C6.83871 1.32401 6.45599 1.70588 5.98387 1.70588C5.51176 1.70588 5.12903 1.32401 5.12903 0.852941C5.12903 0.381875 5.51176 0 5.98387 0C6.45599 0 6.83871 0.381875 6.83871 0.852941Z" fill="white"/>
<path d="M11.9677 0.852941C11.9677 1.32401 11.585 1.70588 11.1129 1.70588C10.6408 1.70588 10.2581 1.32401 10.2581 0.852941C10.2581 0.381875 10.6408 0 11.1129 0C11.585 0 11.9677 0.381875 11.9677 0.852941Z" fill="white"/>
<path d="M17.0968 0.852941C17.0968 1.32401 16.7141 1.70588 16.2419 1.70588C15.7698 1.70588 15.3871 1.32401 15.3871 0.852941C15.3871 0.381875 15.7698 0 16.2419 0C16.7141 0 17.0968 0.381875 17.0968 0.852941Z" fill="white"/>
<path d="M22.2258 0.852941C22.2258 1.32401 21.8431 1.70588 21.371 1.70588C20.8989 1.70588 20.5161 1.32401 20.5161 0.852941C20.5161 0.381875 20.8989 0 21.371 0C21.8431 0 22.2258 0.381875 22.2258 0.852941Z" fill="white"/>
<path d="M27.3548 0.852941C27.3548 1.32401 26.9721 1.70588 26.5 1.70588C26.0279 1.70588 25.6452 1.32401 25.6452 0.852941C25.6452 0.381875 26.0279 0 26.5 0C26.9721 0 27.3548 0.381875 27.3548 0.852941Z" fill="white"/>
<path d="M32.4839 0.852941C32.4839 1.32401 32.1011 1.70588 31.629 1.70588C31.1569 1.70588 30.7742 1.32401 30.7742 0.852941C30.7742 0.381875 31.1569 0 31.629 0C32.1011 0 32.4839 0.381875 32.4839 0.852941Z" fill="white"/>
<path d="M37.6129 0.852941C37.6129 1.32401 37.2302 1.70588 36.7581 1.70588C36.2859 1.70588 35.9032 1.32401 35.9032 0.852941C35.9032 0.381875 36.2859 0 36.7581 0C37.2302 0 37.6129 0.381875 37.6129 0.852941Z" fill="white"/>
<path d="M42.7419 0.852941C42.7419 1.32401 42.3592 1.70588 41.8871 1.70588C41.415 1.70588 41.0323 1.32401 41.0323 0.852941C41.0323 0.381875 41.415 0 41.8871 0C42.3592 0 42.7419 0.381875 42.7419 0.852941Z" fill="white"/>
<path d="M47.871 0.852941C47.871 1.32401 47.4882 1.70588 47.0161 1.70588C46.544 1.70588 46.1613 1.32401 46.1613 0.852941C46.1613 0.381875 46.544 0 47.0161 0C47.4882 0 47.871 0.381875 47.871 0.852941Z" fill="white"/>
<path d="M53 0.852941C53 1.32401 52.6173 1.70588 52.1452 1.70588C51.673 1.70588 51.2903 1.32401 51.2903 0.852941C51.2903 0.381875 51.673 0 52.1452 0C52.6173 0 53 0.381875 53 0.852941Z" fill="white"/>
<path d="M1.70968 5.97059C1.70968 6.44165 1.32695 6.82353 0.854839 6.82353C0.382724 6.82353 0 6.44165 0 5.97059C0 5.49952 0.382724 5.11765 0.854839 5.11765C1.32695 5.11765 1.70968 5.49952 1.70968 5.97059Z" fill="white"/>
<path d="M6.83871 5.97059C6.83871 6.44165 6.45599 6.82353 5.98387 6.82353C5.51176 6.82353 5.12903 6.44165 5.12903 5.97059C5.12903 5.49952 5.51176 5.11765 5.98387 5.11765C6.45599 5.11765 6.83871 5.49952 6.83871 5.97059Z" fill="white"/>
<path d="M11.9677 5.97059C11.9677 6.44165 11.585 6.82353 11.1129 6.82353C10.6408 6.82353 10.2581 6.44165 10.2581 5.97059C10.2581 5.49952 10.6408 5.11765 11.1129 5.11765C11.585 5.11765 11.9677 5.49952 11.9677 5.97059Z" fill="white"/>
<path d="M17.0968 5.97059C17.0968 6.44165 16.7141 6.82353 16.2419 6.82353C15.7698 6.82353 15.3871 6.44165 15.3871 5.97059C15.3871 5.49952 15.7698 5.11765 16.2419 5.11765C16.7141 5.11765 17.0968 5.49952 17.0968 5.97059Z" fill="white"/>
<path d="M22.2258 5.97059C22.2258 6.44165 21.8431 6.82353 21.371 6.82353C20.8989 6.82353 20.5161 6.44165 20.5161 5.97059C20.5161 5.49952 20.8989 5.11765 21.371 5.11765C21.8431 5.11765 22.2258 5.49952 22.2258 5.97059Z" fill="white"/>
<path d="M27.3548 5.97059C27.3548 6.44165 26.9721 6.82353 26.5 6.82353C26.0279 6.82353 25.6452 6.44165 25.6452 5.97059C25.6452 5.49952 26.0279 5.11765 26.5 5.11765C26.9721 5.11765 27.3548 5.49952 27.3548 5.97059Z" fill="white"/>
<path d="M32.4839 5.97059C32.4839 6.44165 32.1011 6.82353 31.629 6.82353C31.1569 6.82353 30.7742 6.44165 30.7742 5.97059C30.7742 5.49952 31.1569 5.11765 31.629 5.11765C32.1011 5.11765 32.4839 5.49952 32.4839 5.97059Z" fill="white"/>
<path d="M37.6129 5.97059C37.6129 6.44165 37.2302 6.82353 36.7581 6.82353C36.2859 6.82353 35.9032 6.44165 35.9032 5.97059C35.9032 5.49952 36.2859 5.11765 36.7581 5.11765C37.2302 5.11765 37.6129 5.49952 37.6129 5.97059Z" fill="white"/>
<path d="M42.7419 5.97059C42.7419 6.44165 42.3592 6.82353 41.8871 6.82353C41.415 6.82353 41.0323 6.44165 41.0323 5.97059C41.0323 5.49952 41.415 5.11765 41.8871 5.11765C42.3592 5.11765 42.7419 5.49952 42.7419 5.97059Z" fill="white"/>
<path d="M47.871 5.97059C47.871 6.44165 47.4882 6.82353 47.0161 6.82353C46.544 6.82353 46.1613 6.44165 46.1613 5.97059C46.1613 5.49952 46.544 5.11765 47.0161 5.11765C47.4882 5.11765 47.871 5.49952 47.871 5.97059Z" fill="white"/>
<path d="M53 5.97059C53 6.44165 52.6173 6.82353 52.1452 6.82353C51.673 6.82353 51.2903 6.44165 51.2903 5.97059C51.2903 5.49952 51.673 5.11765 52.1452 5.11765C52.6173 5.11765 53 5.49952 53 5.97059Z" fill="white"/>
<path d="M1.70968 11.0882C1.70968 11.5593 1.32695 11.9412 0.854839 11.9412C0.382724 11.9412 0 11.5593 0 11.0882C0 10.6172 0.382724 10.2353 0.854839 10.2353C1.32695 10.2353 1.70968 10.6172 1.70968 11.0882Z" fill="white"/>
<path d="M6.83871 11.0882C6.83871 11.5593 6.45599 11.9412 5.98387 11.9412C5.51176 11.9412 5.12903 11.5593 5.12903 11.0882C5.12903 10.6172 5.51176 10.2353 5.98387 10.2353C6.45599 10.2353 6.83871 10.6172 6.83871 11.0882Z" fill="white"/>
<path d="M11.9677 11.0882C11.9677 11.5593 11.585 11.9412 11.1129 11.9412C10.6408 11.9412 10.2581 11.5593 10.2581 11.0882C10.2581 10.6172 10.6408 10.2353 11.1129 10.2353C11.585 10.2353 11.9677 10.6172 11.9677 11.0882Z" fill="white"/>
<path d="M17.0968 11.0882C17.0968 11.5593 16.7141 11.9412 16.2419 11.9412C15.7698 11.9412 15.3871 11.5593 15.3871 11.0882C15.3871 10.6172 15.7698 10.2353 16.2419 10.2353C16.7141 10.2353 17.0968 10.6172 17.0968 11.0882Z" fill="white"/>
<path d="M22.2258 11.0882C22.2258 11.5593 21.8431 11.9412 21.371 11.9412C20.8989 11.9412 20.5161 11.5593 20.5161 11.0882C20.5161 10.6172 20.8989 10.2353 21.371 10.2353C21.8431 10.2353 22.2258 10.6172 22.2258 11.0882Z" fill="white"/>
<path d="M27.3548 11.0882C27.3548 11.5593 26.9721 11.9412 26.5 11.9412C26.0279 11.9412 25.6452 11.5593 25.6452 11.0882C25.6452 10.6172 26.0279 10.2353 26.5 10.2353C26.9721 10.2353 27.3548 10.6172 27.3548 11.0882Z" fill="white"/>
<path d="M32.4839 11.0882C32.4839 11.5593 32.1011 11.9412 31.629 11.9412C31.1569 11.9412 30.7742 11.5593 30.7742 11.0882C30.7742 10.6172 31.1569 10.2353 31.629 10.2353C32.1011 10.2353 32.4839 10.6172 32.4839 11.0882Z" fill="white"/>
<path d="M37.6129 11.0882C37.6129 11.5593 37.2302 11.9412 36.7581 11.9412C36.2859 11.9412 35.9032 11.5593 35.9032 11.0882C35.9032 10.6172 36.2859 10.2353 36.7581 10.2353C37.2302 10.2353 37.6129 10.6172 37.6129 11.0882Z" fill="white"/>
<path d="M42.7419 11.0882C42.7419 11.5593 42.3592 11.9412 41.8871 11.9412C41.415 11.9412 41.0323 11.5593 41.0323 11.0882C41.0323 10.6172 41.415 10.2353 41.8871 10.2353C42.3592 10.2353 42.7419 10.6172 42.7419 11.0882Z" fill="white"/>
<path d="M47.871 11.0882C47.871 11.5593 47.4882 11.9412 47.0161 11.9412C46.544 11.9412 46.1613 11.5593 46.1613 11.0882C46.1613 10.6172 46.544 10.2353 47.0161 10.2353C47.4882 10.2353 47.871 10.6172 47.871 11.0882Z" fill="white"/>
<path d="M53 11.0882C53 11.5593 52.6173 11.9412 52.1452 11.9412C51.673 11.9412 51.2903 11.5593 51.2903 11.0882C51.2903 10.6172 51.673 10.2353 52.1452 10.2353C52.6173 10.2353 53 10.6172 53 11.0882Z" fill="white"/>
<path d="M1.70968 16.2059C1.70968 16.6769 1.32695 17.0588 0.854839 17.0588C0.382724 17.0588 0 16.6769 0 16.2059C0 15.7348 0.382724 15.3529 0.854839 15.3529C1.32695 15.3529 1.70968 15.7348 1.70968 16.2059Z" fill="white"/>
<path d="M6.83871 16.2059C6.83871 16.6769 6.45599 17.0588 5.98387 17.0588C5.51176 17.0588 5.12903 16.6769 5.12903 16.2059C5.12903 15.7348 5.51176 15.3529 5.98387 15.3529C6.45599 15.3529 6.83871 15.7348 6.83871 16.2059Z" fill="white"/>
<path d="M11.9677 16.2059C11.9677 16.6769 11.585 17.0588 11.1129 17.0588C10.6408 17.0588 10.2581 16.6769 10.2581 16.2059C10.2581 15.7348 10.6408 15.3529 11.1129 15.3529C11.585 15.3529 11.9677 15.7348 11.9677 16.2059Z" fill="white"/>
<path d="M17.0968 16.2059C17.0968 16.6769 16.7141 17.0588 16.2419 17.0588C15.7698 17.0588 15.3871 16.6769 15.3871 16.2059C15.3871 15.7348 15.7698 15.3529 16.2419 15.3529C16.7141 15.3529 17.0968 15.7348 17.0968 16.2059Z" fill="white"/>
<path d="M22.2258 16.2059C22.2258 16.6769 21.8431 17.0588 21.371 17.0588C20.8989 17.0588 20.5161 16.6769 20.5161 16.2059C20.5161 15.7348 20.8989 15.3529 21.371 15.3529C21.8431 15.3529 22.2258 15.7348 22.2258 16.2059Z" fill="white"/>
<path d="M27.3548 16.2059C27.3548 16.6769 26.9721 17.0588 26.5 17.0588C26.0279 17.0588 25.6452 16.6769 25.6452 16.2059C25.6452 15.7348 26.0279 15.3529 26.5 15.3529C26.9721 15.3529 27.3548 15.7348 27.3548 16.2059Z" fill="white"/>
<path d="M32.4839 16.2059C32.4839 16.6769 32.1011 17.0588 31.629 17.0588C31.1569 17.0588 30.7742 16.6769 30.7742 16.2059C30.7742 15.7348 31.1569 15.3529 31.629 15.3529C32.1011 15.3529 32.4839 15.7348 32.4839 16.2059Z" fill="white"/>
<path d="M37.6129 16.2059C37.6129 16.6769 37.2302 17.0588 36.7581 17.0588C36.2859 17.0588 35.9032 16.6769 35.9032 16.2059C35.9032 15.7348 36.2859 15.3529 36.7581 15.3529C37.2302 15.3529 37.6129 15.7348 37.6129 16.2059Z" fill="white"/>
<path d="M42.7419 16.2059C42.7419 16.6769 42.3592 17.0588 41.8871 17.0588C41.415 17.0588 41.0323 16.6769 41.0323 16.2059C41.0323 15.7348 41.415 15.3529 41.8871 15.3529C42.3592 15.3529 42.7419 15.7348 42.7419 16.2059Z" fill="white"/>
<path d="M47.871 16.2059C47.871 16.6769 47.4882 17.0588 47.0161 17.0588C46.544 17.0588 46.1613 16.6769 46.1613 16.2059C46.1613 15.7348 46.544 15.3529 47.0161 15.3529C47.4882 15.3529 47.871 15.7348 47.871 16.2059Z" fill="white"/>
<path d="M53 16.2059C53 16.6769 52.6173 17.0588 52.1452 17.0588C51.673 17.0588 51.2903 16.6769 51.2903 16.2059C51.2903 15.7348 51.673 15.3529 52.1452 15.3529C52.6173 15.3529 53 15.7348 53 16.2059Z" fill="white"/>
<path d="M1.70968 21.3235C1.70968 21.7946 1.32695 22.1765 0.854839 22.1765C0.382724 22.1765 0 21.7946 0 21.3235C0 20.8525 0.382724 20.4706 0.854839 20.4706C1.32695 20.4706 1.70968 20.8525 1.70968 21.3235Z" fill="white"/>
<path d="M6.83871 21.3235C6.83871 21.7946 6.45599 22.1765 5.98387 22.1765C5.51176 22.1765 5.12903 21.7946 5.12903 21.3235C5.12903 20.8525 5.51176 20.4706 5.98387 20.4706C6.45599 20.4706 6.83871 20.8525 6.83871 21.3235Z" fill="white"/>
<path d="M11.9677 21.3235C11.9677 21.7946 11.585 22.1765 11.1129 22.1765C10.6408 22.1765 10.2581 21.7946 10.2581 21.3235C10.2581 20.8525 10.6408 20.4706 11.1129 20.4706C11.585 20.4706 11.9677 20.8525 11.9677 21.3235Z" fill="white"/>
<path d="M17.0968 21.3235C17.0968 21.7946 16.7141 22.1765 16.2419 22.1765C15.7698 22.1765 15.3871 21.7946 15.3871 21.3235C15.3871 20.8525 15.7698 20.4706 16.2419 20.4706C16.7141 20.4706 17.0968 20.8525 17.0968 21.3235Z" fill="white"/>
<path d="M22.2258 21.3235C22.2258 21.7946 21.8431 22.1765 21.371 22.1765C20.8989 22.1765 20.5161 21.7946 20.5161 21.3235C20.5161 20.8525 20.8989 20.4706 21.371 20.4706C21.8431 20.4706 22.2258 20.8525 22.2258 21.3235Z" fill="white"/>
<path d="M27.3548 21.3235C27.3548 21.7946 26.9721 22.1765 26.5 22.1765C26.0279 22.1765 25.6452 21.7946 25.6452 21.3235C25.6452 20.8525 26.0279 20.4706 26.5 20.4706C26.9721 20.4706 27.3548 20.8525 27.3548 21.3235Z" fill="white"/>
<path d="M32.4839 21.3235C32.4839 21.7946 32.1011 22.1765 31.629 22.1765C31.1569 22.1765 30.7742 21.7946 30.7742 21.3235C30.7742 20.8525 31.1569 20.4706 31.629 20.4706C32.1011 20.4706 32.4839 20.8525 32.4839 21.3235Z" fill="white"/>
<path d="M37.6129 21.3235C37.6129 21.7946 37.2302 22.1765 36.7581 22.1765C36.2859 22.1765 35.9032 21.7946 35.9032 21.3235C35.9032 20.8525 36.2859 20.4706 36.7581 20.4706C37.2302 20.4706 37.6129 20.8525 37.6129 21.3235Z" fill="white"/>
<path d="M42.7419 21.3235C42.7419 21.7946 42.3592 22.1765 41.8871 22.1765C41.415 22.1765 41.0323 21.7946 41.0323 21.3235C41.0323 20.8525 41.415 20.4706 41.8871 20.4706C42.3592 20.4706 42.7419 20.8525 42.7419 21.3235Z" fill="white"/>
<path d="M47.871 21.3235C47.871 21.7946 47.4882 22.1765 47.0161 22.1765C46.544 22.1765 46.1613 21.7946 46.1613 21.3235C46.1613 20.8525 46.544 20.4706 47.0161 20.4706C47.4882 20.4706 47.871 20.8525 47.871 21.3235Z" fill="white"/>
<path d="M53 21.3235C53 21.7946 52.6173 22.1765 52.1452 22.1765C51.673 22.1765 51.2903 21.7946 51.2903 21.3235C51.2903 20.8525 51.673 20.4706 52.1452 20.4706C52.6173 20.4706 53 20.8525 53 21.3235Z" fill="white"/>
<path d="M1.70968 26.4412C1.70968 26.9122 1.32695 27.2941 0.854839 27.2941C0.382724 27.2941 0 26.9122 0 26.4412C0 25.9701 0.382724 25.5882 0.854839 25.5882C1.32695 25.5882 1.70968 25.9701 1.70968 26.4412Z" fill="white"/>
<path d="M6.83871 26.4412C6.83871 26.9122 6.45599 27.2941 5.98387 27.2941C5.51176 27.2941 5.12903 26.9122 5.12903 26.4412C5.12903 25.9701 5.51176 25.5882 5.98387 25.5882C6.45599 25.5882 6.83871 25.9701 6.83871 26.4412Z" fill="white"/>
<path d="M11.9677 26.4412C11.9677 26.9122 11.585 27.2941 11.1129 27.2941C10.6408 27.2941 10.2581 26.9122 10.2581 26.4412C10.2581 25.9701 10.6408 25.5882 11.1129 25.5882C11.585 25.5882 11.9677 25.9701 11.9677 26.4412Z" fill="white"/>
<path d="M17.0968 26.4412C17.0968 26.9122 16.7141 27.2941 16.2419 27.2941C15.7698 27.2941 15.3871 26.9122 15.3871 26.4412C15.3871 25.9701 15.7698 25.5882 16.2419 25.5882C16.7141 25.5882 17.0968 25.9701 17.0968 26.4412Z" fill="white"/>
<path d="M22.2258 26.4412C22.2258 26.9122 21.8431 27.2941 21.371 27.2941C20.8989 27.2941 20.5161 26.9122 20.5161 26.4412C20.5161 25.9701 20.8989 25.5882 21.371 25.5882C21.8431 25.5882 22.2258 25.9701 22.2258 26.4412Z" fill="white"/>
<path d="M27.3548 26.4412C27.3548 26.9122 26.9721 27.2941 26.5 27.2941C26.0279 27.2941 25.6452 26.9122 25.6452 26.4412C25.6452 25.9701 26.0279 25.5882 26.5 25.5882C26.9721 25.5882 27.3548 25.9701 27.3548 26.4412Z" fill="white"/>
<path d="M32.4839 26.4412C32.4839 26.9122 32.1011 27.2941 31.629 27.2941C31.1569 27.2941 30.7742 26.9122 30.7742 26.4412C30.7742 25.9701 31.1569 25.5882 31.629 25.5882C32.1011 25.5882 32.4839 25.9701 32.4839 26.4412Z" fill="white"/>
<path d="M37.6129 26.4412C37.6129 26.9122 37.2302 27.2941 36.7581 27.2941C36.2859 27.2941 35.9032 26.9122 35.9032 26.4412C35.9032 25.9701 36.2859 25.5882 36.7581 25.5882C37.2302 25.5882 37.6129 25.9701 37.6129 26.4412Z" fill="white"/>
<path d="M42.7419 26.4412C42.7419 26.9122 42.3592 27.2941 41.8871 27.2941C41.415 27.2941 41.0323 26.9122 41.0323 26.4412C41.0323 25.9701 41.415 25.5882 41.8871 25.5882C42.3592 25.5882 42.7419 25.9701 42.7419 26.4412Z" fill="white"/>
<path d="M47.871 26.4412C47.871 26.9122 47.4882 27.2941 47.0161 27.2941C46.544 27.2941 46.1613 26.9122 46.1613 26.4412C46.1613 25.9701 46.544 25.5882 47.0161 25.5882C47.4882 25.5882 47.871 25.9701 47.871 26.4412Z" fill="white"/>
<path d="M53 26.4412C53 26.9122 52.6173 27.2941 52.1452 27.2941C51.673 27.2941 51.2903 26.9122 51.2903 26.4412C51.2903 25.9701 51.673 25.5882 52.1452 25.5882C52.6173 25.5882 53 25.9701 53 26.4412Z" fill="white"/>
<path d="M1.70968 31.5588C1.70968 32.0299 1.32695 32.4118 0.854839 32.4118C0.382724 32.4118 0 32.0299 0 31.5588C0 31.0878 0.382724 30.7059 0.854839 30.7059C1.32695 30.7059 1.70968 31.0878 1.70968 31.5588Z" fill="white"/>
<path d="M6.83871 31.5588C6.83871 32.0299 6.45599 32.4118 5.98387 32.4118C5.51176 32.4118 5.12903 32.0299 5.12903 31.5588C5.12903 31.0878 5.51176 30.7059 5.98387 30.7059C6.45599 30.7059 6.83871 31.0878 6.83871 31.5588Z" fill="white"/>
<path d="M11.9677 31.5588C11.9677 32.0299 11.585 32.4118 11.1129 32.4118C10.6408 32.4118 10.2581 32.0299 10.2581 31.5588C10.2581 31.0878 10.6408 30.7059 11.1129 30.7059C11.585 30.7059 11.9677 31.0878 11.9677 31.5588Z" fill="white"/>
<path d="M17.0968 31.5588C17.0968 32.0299 16.7141 32.4118 16.2419 32.4118C15.7698 32.4118 15.3871 32.0299 15.3871 31.5588C15.3871 31.0878 15.7698 30.7059 16.2419 30.7059C16.7141 30.7059 17.0968 31.0878 17.0968 31.5588Z" fill="white"/>
<path d="M22.2258 31.5588C22.2258 32.0299 21.8431 32.4118 21.371 32.4118C20.8989 32.4118 20.5161 32.0299 20.5161 31.5588C20.5161 31.0878 20.8989 30.7059 21.371 30.7059C21.8431 30.7059 22.2258 31.0878 22.2258 31.5588Z" fill="white"/>
<path d="M27.3548 31.5588C27.3548 32.0299 26.9721 32.4118 26.5 32.4118C26.0279 32.4118 25.6452 32.0299 25.6452 31.5588C25.6452 31.0878 26.0279 30.7059 26.5 30.7059C26.9721 30.7059 27.3548 31.0878 27.3548 31.5588Z" fill="white"/>
<path d="M32.4839 31.5588C32.4839 32.0299 32.1011 32.4118 31.629 32.4118C31.1569 32.4118 30.7742 32.0299 30.7742 31.5588C30.7742 31.0878 31.1569 30.7059 31.629 30.7059C32.1011 30.7059 32.4839 31.0878 32.4839 31.5588Z" fill="white"/>
<path d="M37.6129 31.5588C37.6129 32.0299 37.2302 32.4118 36.7581 32.4118C36.2859 32.4118 35.9032 32.0299 35.9032 31.5588C35.9032 31.0878 36.2859 30.7059 36.7581 30.7059C37.2302 30.7059 37.6129 31.0878 37.6129 31.5588Z" fill="white"/>
<path d="M42.7419 31.5588C42.7419 32.0299 42.3592 32.4118 41.8871 32.4118C41.415 32.4118 41.0323 32.0299 41.0323 31.5588C41.0323 31.0878 41.415 30.7059 41.8871 30.7059C42.3592 30.7059 42.7419 31.0878 42.7419 31.5588Z" fill="white"/>
<path d="M47.871 31.5588C47.871 32.0299 47.4882 32.4118 47.0161 32.4118C46.544 32.4118 46.1613 32.0299 46.1613 31.5588C46.1613 31.0878 46.544 30.7059 47.0161 30.7059C47.4882 30.7059 47.871 31.0878 47.871 31.5588Z" fill="white"/>
<path d="M53 31.5588C53 32.0299 52.6173 32.4118 52.1452 32.4118C51.673 32.4118 51.2903 32.0299 51.2903 31.5588C51.2903 31.0878 51.673 30.7059 52.1452 30.7059C52.6173 30.7059 53 31.0878 53 31.5588Z" fill="white"/>
<path d="M1.70968 36.6765C1.70968 37.1475 1.32695 37.5294 0.854839 37.5294C0.382724 37.5294 0 37.1475 0 36.6765C0 36.2054 0.382724 35.8235 0.854839 35.8235C1.32695 35.8235 1.70968 36.2054 1.70968 36.6765Z" fill="white"/>
<path d="M6.83871 36.6765C6.83871 37.1475 6.45599 37.5294 5.98387 37.5294C5.51176 37.5294 5.12903 37.1475 5.12903 36.6765C5.12903 36.2054 5.51176 35.8235 5.98387 35.8235C6.45599 35.8235 6.83871 36.2054 6.83871 36.6765Z" fill="white"/>
<path d="M11.9677 36.6765C11.9677 37.1475 11.585 37.5294 11.1129 37.5294C10.6408 37.5294 10.2581 37.1475 10.2581 36.6765C10.2581 36.2054 10.6408 35.8235 11.1129 35.8235C11.585 35.8235 11.9677 36.2054 11.9677 36.6765Z" fill="white"/>
<path d="M17.0968 36.6765C17.0968 37.1475 16.7141 37.5294 16.2419 37.5294C15.7698 37.5294 15.3871 37.1475 15.3871 36.6765C15.3871 36.2054 15.7698 35.8235 16.2419 35.8235C16.7141 35.8235 17.0968 36.2054 17.0968 36.6765Z" fill="white"/>
<path d="M22.2258 36.6765C22.2258 37.1475 21.8431 37.5294 21.371 37.5294C20.8989 37.5294 20.5161 37.1475 20.5161 36.6765C20.5161 36.2054 20.8989 35.8235 21.371 35.8235C21.8431 35.8235 22.2258 36.2054 22.2258 36.6765Z" fill="white"/>
<path d="M27.3548 36.6765C27.3548 37.1475 26.9721 37.5294 26.5 37.5294C26.0279 37.5294 25.6452 37.1475 25.6452 36.6765C25.6452 36.2054 26.0279 35.8235 26.5 35.8235C26.9721 35.8235 27.3548 36.2054 27.3548 36.6765Z" fill="white"/>
<path d="M32.4839 36.6765C32.4839 37.1475 32.1011 37.5294 31.629 37.5294C31.1569 37.5294 30.7742 37.1475 30.7742 36.6765C30.7742 36.2054 31.1569 35.8235 31.629 35.8235C32.1011 35.8235 32.4839 36.2054 32.4839 36.6765Z" fill="white"/>
<path d="M37.6129 36.6765C37.6129 37.1475 37.2302 37.5294 36.7581 37.5294C36.2859 37.5294 35.9032 37.1475 35.9032 36.6765C35.9032 36.2054 36.2859 35.8235 36.7581 35.8235C37.2302 35.8235 37.6129 36.2054 37.6129 36.6765Z" fill="white"/>
<path d="M42.7419 36.6765C42.7419 37.1475 42.3592 37.5294 41.8871 37.5294C41.415 37.5294 41.0323 37.1475 41.0323 36.6765C41.0323 36.2054 41.415 35.8235 41.8871 35.8235C42.3592 35.8235 42.7419 36.2054 42.7419 36.6765Z" fill="white"/>
<path d="M47.871 36.6765C47.871 37.1475 47.4882 37.5294 47.0161 37.5294C46.544 37.5294 46.1613 37.1475 46.1613 36.6765C46.1613 36.2054 46.544 35.8235 47.0161 35.8235C47.4882 35.8235 47.871 36.2054 47.871 36.6765Z" fill="white"/>
<path d="M53 36.6765C53 37.1475 52.6173 37.5294 52.1452 37.5294C51.673 37.5294 51.2903 37.1475 51.2903 36.6765C51.2903 36.2054 51.673 35.8235 52.1452 35.8235C52.6173 35.8235 53 36.2054 53 36.6765Z" fill="white"/>
<path d="M1.70968 41.7941C1.70968 42.2652 1.32695 42.6471 0.854839 42.6471C0.382724 42.6471 0 42.2652 0 41.7941C0 41.3231 0.382724 40.9412 0.854839 40.9412C1.32695 40.9412 1.70968 41.3231 1.70968 41.7941Z" fill="white"/>
<path d="M6.83871 41.7941C6.83871 42.2652 6.45599 42.6471 5.98387 42.6471C5.51176 42.6471 5.12903 42.2652 5.12903 41.7941C5.12903 41.3231 5.51176 40.9412 5.98387 40.9412C6.45599 40.9412 6.83871 41.3231 6.83871 41.7941Z" fill="white"/>
<path d="M11.9677 41.7941C11.9677 42.2652 11.585 42.6471 11.1129 42.6471C10.6408 42.6471 10.2581 42.2652 10.2581 41.7941C10.2581 41.3231 10.6408 40.9412 11.1129 40.9412C11.585 40.9412 11.9677 41.3231 11.9677 41.7941Z" fill="white"/>
<path d="M17.0968 41.7941C17.0968 42.2652 16.7141 42.6471 16.2419 42.6471C15.7698 42.6471 15.3871 42.2652 15.3871 41.7941C15.3871 41.3231 15.7698 40.9412 16.2419 40.9412C16.7141 40.9412 17.0968 41.3231 17.0968 41.7941Z" fill="white"/>
<path d="M22.2258 41.7941C22.2258 42.2652 21.8431 42.6471 21.371 42.6471C20.8989 42.6471 20.5161 42.2652 20.5161 41.7941C20.5161 41.3231 20.8989 40.9412 21.371 40.9412C21.8431 40.9412 22.2258 41.3231 22.2258 41.7941Z" fill="white"/>
<path d="M27.3548 41.7941C27.3548 42.2652 26.9721 42.6471 26.5 42.6471C26.0279 42.6471 25.6452 42.2652 25.6452 41.7941C25.6452 41.3231 26.0279 40.9412 26.5 40.9412C26.9721 40.9412 27.3548 41.3231 27.3548 41.7941Z" fill="white"/>
<path d="M32.4839 41.7941C32.4839 42.2652 32.1011 42.6471 31.629 42.6471C31.1569 42.6471 30.7742 42.2652 30.7742 41.7941C30.7742 41.3231 31.1569 40.9412 31.629 40.9412C32.1011 40.9412 32.4839 41.3231 32.4839 41.7941Z" fill="white"/>
<path d="M37.6129 41.7941C37.6129 42.2652 37.2302 42.6471 36.7581 42.6471C36.2859 42.6471 35.9032 42.2652 35.9032 41.7941C35.9032 41.3231 36.2859 40.9412 36.7581 40.9412C37.2302 40.9412 37.6129 41.3231 37.6129 41.7941Z" fill="white"/>
<path d="M42.7419 41.7941C42.7419 42.2652 42.3592 42.6471 41.8871 42.6471C41.415 42.6471 41.0323 42.2652 41.0323 41.7941C41.0323 41.3231 41.415 40.9412 41.8871 40.9412C42.3592 40.9412 42.7419 41.3231 42.7419 41.7941Z" fill="white"/>
<path d="M47.871 41.7941C47.871 42.2652 47.4882 42.6471 47.0161 42.6471C46.544 42.6471 46.1613 42.2652 46.1613 41.7941C46.1613 41.3231 46.544 40.9412 47.0161 40.9412C47.4882 40.9412 47.871 41.3231 47.871 41.7941Z" fill="white"/>
<path d="M53 41.7941C53 42.2652 52.6173 42.6471 52.1452 42.6471C51.673 42.6471 51.2903 42.2652 51.2903 41.7941C51.2903 41.3231 51.673 40.9412 52.1452 40.9412C52.6173 40.9412 53 41.3231 53 41.7941Z" fill="white"/>
<path d="M1.70968 46.9118C1.70968 47.3828 1.32695 47.7647 0.854839 47.7647C0.382724 47.7647 0 47.3828 0 46.9118C0 46.4407 0.382724 46.0588 0.854839 46.0588C1.32695 46.0588 1.70968 46.4407 1.70968 46.9118Z" fill="white"/>
<path d="M6.83871 46.9118C6.83871 47.3828 6.45599 47.7647 5.98387 47.7647C5.51176 47.7647 5.12903 47.3828 5.12903 46.9118C5.12903 46.4407 5.51176 46.0588 5.98387 46.0588C6.45599 46.0588 6.83871 46.4407 6.83871 46.9118Z" fill="white"/>
<path d="M11.9677 46.9118C11.9677 47.3828 11.585 47.7647 11.1129 47.7647C10.6408 47.7647 10.2581 47.3828 10.2581 46.9118C10.2581 46.4407 10.6408 46.0588 11.1129 46.0588C11.585 46.0588 11.9677 46.4407 11.9677 46.9118Z" fill="white"/>
<path d="M17.0968 46.9118C17.0968 47.3828 16.7141 47.7647 16.2419 47.7647C15.7698 47.7647 15.3871 47.3828 15.3871 46.9118C15.3871 46.4407 15.7698 46.0588 16.2419 46.0588C16.7141 46.0588 17.0968 46.4407 17.0968 46.9118Z" fill="white"/>
<path d="M22.2258 46.9118C22.2258 47.3828 21.8431 47.7647 21.371 47.7647C20.8989 47.7647 20.5161 47.3828 20.5161 46.9118C20.5161 46.4407 20.8989 46.0588 21.371 46.0588C21.8431 46.0588 22.2258 46.4407 22.2258 46.9118Z" fill="white"/>
<path d="M27.3548 46.9118C27.3548 47.3828 26.9721 47.7647 26.5 47.7647C26.0279 47.7647 25.6452 47.3828 25.6452 46.9118C25.6452 46.4407 26.0279 46.0588 26.5 46.0588C26.9721 46.0588 27.3548 46.4407 27.3548 46.9118Z" fill="white"/>
<path d="M32.4839 46.9118C32.4839 47.3828 32.1011 47.7647 31.629 47.7647C31.1569 47.7647 30.7742 47.3828 30.7742 46.9118C30.7742 46.4407 31.1569 46.0588 31.629 46.0588C32.1011 46.0588 32.4839 46.4407 32.4839 46.9118Z" fill="white"/>
<path d="M37.6129 46.9118C37.6129 47.3828 37.2302 47.7647 36.7581 47.7647C36.2859 47.7647 35.9032 47.3828 35.9032 46.9118C35.9032 46.4407 36.2859 46.0588 36.7581 46.0588C37.2302 46.0588 37.6129 46.4407 37.6129 46.9118Z" fill="white"/>
<path d="M42.7419 46.9118C42.7419 47.3828 42.3592 47.7647 41.8871 47.7647C41.415 47.7647 41.0323 47.3828 41.0323 46.9118C41.0323 46.4407 41.415 46.0588 41.8871 46.0588C42.3592 46.0588 42.7419 46.4407 42.7419 46.9118Z" fill="white"/>
<path d="M47.871 46.9118C47.871 47.3828 47.4882 47.7647 47.0161 47.7647C46.544 47.7647 46.1613 47.3828 46.1613 46.9118C46.1613 46.4407 46.544 46.0588 47.0161 46.0588C47.4882 46.0588 47.871 46.4407 47.871 46.9118Z" fill="white"/>
<path d="M53 46.9118C53 47.3828 52.6173 47.7647 52.1452 47.7647C51.673 47.7647 51.2903 47.3828 51.2903 46.9118C51.2903 46.4407 51.673 46.0588 52.1452 46.0588C52.6173 46.0588 53 46.4407 53 46.9118Z" fill="white"/>
<path d="M1.70968 52.0294C1.70968 52.5005 1.32695 52.8824 0.854839 52.8824C0.382724 52.8824 0 52.5005 0 52.0294C0 51.5583 0.382724 51.1765 0.854839 51.1765C1.32695 51.1765 1.70968 51.5583 1.70968 52.0294Z" fill="white"/>
<path d="M6.83871 52.0294C6.83871 52.5005 6.45599 52.8824 5.98387 52.8824C5.51176 52.8824 5.12903 52.5005 5.12903 52.0294C5.12903 51.5583 5.51176 51.1765 5.98387 51.1765C6.45599 51.1765 6.83871 51.5583 6.83871 52.0294Z" fill="white"/>
<path d="M11.9677 52.0294C11.9677 52.5005 11.585 52.8824 11.1129 52.8824C10.6408 52.8824 10.2581 52.5005 10.2581 52.0294C10.2581 51.5583 10.6408 51.1765 11.1129 51.1765C11.585 51.1765 11.9677 51.5583 11.9677 52.0294Z" fill="white"/>
<path d="M17.0968 52.0294C17.0968 52.5005 16.7141 52.8824 16.2419 52.8824C15.7698 52.8824 15.3871 52.5005 15.3871 52.0294C15.3871 51.5583 15.7698 51.1765 16.2419 51.1765C16.7141 51.1765 17.0968 51.5583 17.0968 52.0294Z" fill="white"/>
<path d="M22.2258 52.0294C22.2258 52.5005 21.8431 52.8824 21.371 52.8824C20.8989 52.8824 20.5161 52.5005 20.5161 52.0294C20.5161 51.5583 20.8989 51.1765 21.371 51.1765C21.8431 51.1765 22.2258 51.5583 22.2258 52.0294Z" fill="white"/>
<path d="M27.3548 52.0294C27.3548 52.5005 26.9721 52.8824 26.5 52.8824C26.0279 52.8824 25.6452 52.5005 25.6452 52.0294C25.6452 51.5583 26.0279 51.1765 26.5 51.1765C26.9721 51.1765 27.3548 51.5583 27.3548 52.0294Z" fill="white"/>
<path d="M32.4839 52.0294C32.4839 52.5005 32.1011 52.8824 31.629 52.8824C31.1569 52.8824 30.7742 52.5005 30.7742 52.0294C30.7742 51.5583 31.1569 51.1765 31.629 51.1765C32.1011 51.1765 32.4839 51.5583 32.4839 52.0294Z" fill="white"/>
<path d="M37.6129 52.0294C37.6129 52.5005 37.2302 52.8824 36.7581 52.8824C36.2859 52.8824 35.9032 52.5005 35.9032 52.0294C35.9032 51.5583 36.2859 51.1765 36.7581 51.1765C37.2302 51.1765 37.6129 51.5583 37.6129 52.0294Z" fill="white"/>
<path d="M42.7419 52.0294C42.7419 52.5005 42.3592 52.8824 41.8871 52.8824C41.415 52.8824 41.0323 52.5005 41.0323 52.0294C41.0323 51.5583 41.415 51.1765 41.8871 51.1765C42.3592 51.1765 42.7419 51.5583 42.7419 52.0294Z" fill="white"/>
<path d="M47.871 52.0294C47.871 52.5005 47.4882 52.8824 47.0161 52.8824C46.544 52.8824 46.1613 52.5005 46.1613 52.0294C46.1613 51.5583 46.544 51.1765 47.0161 51.1765C47.4882 51.1765 47.871 51.5583 47.871 52.0294Z" fill="white"/>
<path d="M53 52.0294C53 52.5005 52.6173 52.8824 52.1452 52.8824C51.673 52.8824 51.2903 52.5005 51.2903 52.0294C51.2903 51.5583 51.673 51.1765 52.1452 51.1765C52.6173 51.1765 53 51.5583 53 52.0294Z" fill="white"/>
<path d="M1.70968 57.1471C1.70968 57.6181 1.32695 58 0.854839 58C0.382724 58 0 57.6181 0 57.1471C0 56.676 0.382724 56.2941 0.854839 56.2941C1.32695 56.2941 1.70968 56.676 1.70968 57.1471Z" fill="white"/>
<path d="M6.83871 57.1471C6.83871 57.6181 6.45599 58 5.98387 58C5.51176 58 5.12903 57.6181 5.12903 57.1471C5.12903 56.676 5.51176 56.2941 5.98387 56.2941C6.45599 56.2941 6.83871 56.676 6.83871 57.1471Z" fill="white"/>
<path d="M11.9677 57.1471C11.9677 57.6181 11.585 58 11.1129 58C10.6408 58 10.2581 57.6181 10.2581 57.1471C10.2581 56.676 10.6408 56.2941 11.1129 56.2941C11.585 56.2941 11.9677 56.676 11.9677 57.1471Z" fill="white"/>
<path d="M17.0968 57.1471C17.0968 57.6181 16.7141 58 16.2419 58C15.7698 58 15.3871 57.6181 15.3871 57.1471C15.3871 56.676 15.7698 56.2941 16.2419 56.2941C16.7141 56.2941 17.0968 56.676 17.0968 57.1471Z" fill="white"/>
<path d="M22.2258 57.1471C22.2258 57.6181 21.8431 58 21.371 58C20.8989 58 20.5161 57.6181 20.5161 57.1471C20.5161 56.676 20.8989 56.2941 21.371 56.2941C21.8431 56.2941 22.2258 56.676 22.2258 57.1471Z" fill="white"/>
<path d="M27.3548 57.1471C27.3548 57.6181 26.9721 58 26.5 58C26.0279 58 25.6452 57.6181 25.6452 57.1471C25.6452 56.676 26.0279 56.2941 26.5 56.2941C26.9721 56.2941 27.3548 56.676 27.3548 57.1471Z" fill="white"/>
<path d="M32.4839 57.1471C32.4839 57.6181 32.1011 58 31.629 58C31.1569 58 30.7742 57.6181 30.7742 57.1471C30.7742 56.676 31.1569 56.2941 31.629 56.2941C32.1011 56.2941 32.4839 56.676 32.4839 57.1471Z" fill="white"/>
<path d="M37.6129 57.1471C37.6129 57.6181 37.2302 58 36.7581 58C36.2859 58 35.9032 57.6181 35.9032 57.1471C35.9032 56.676 36.2859 56.2941 36.7581 56.2941C37.2302 56.2941 37.6129 56.676 37.6129 57.1471Z" fill="white"/>
<path d="M42.7419 57.1471C42.7419 57.6181 42.3592 58 41.8871 58C41.415 58 41.0323 57.6181 41.0323 57.1471C41.0323 56.676 41.415 56.2941 41.8871 56.2941C42.3592 56.2941 42.7419 56.676 42.7419 57.1471Z" fill="white"/>
<path d="M47.871 57.1471C47.871 57.6181 47.4882 58 47.0161 58C46.544 58 46.1613 57.6181 46.1613 57.1471C46.1613 56.676 46.544 56.2941 47.0161 56.2941C47.4882 56.2941 47.871 56.676 47.871 57.1471Z" fill="white"/>
<path d="M53 57.1471C53 57.6181 52.6173 58 52.1452 58C51.673 58 51.2903 57.6181 51.2903 57.1471C51.2903 56.676 51.673 56.2941 52.1452 56.2941C52.6173 56.2941 53 56.676 53 57.1471Z" fill="white"/>
</g>
<defs>
<clipPath id="clip0_7_8">
<rect width="20" height="35" fill="white"/>
</clipPath>
</defs>
</svg>
